<svg xmlns="http://www.w3.org/2000/svg" viewBox="0 0 32 32" role="img" aria-labelledby="title">
  <title id="title">md</title>
  <rect x="1" y="1" width="30" height="30" rx="6" fill="#0969da" />
  <path
    fill="#fff"
    d="m 6.2759935,21.5 v -9.112 h 1.887 l 0.051,1.36 q 0.51,-1.564 1.734,-1.564 0.6970005,0 1.0710005,0.408 0.391,0.391 0.578,1.207 v 0.051 q 0.255,-0.816 0.765,-1.241 0.527,-0.425 1.207,-0.425 1.003,0 1.479,0.731 0.476,0.714 0.476,2.261 V 21.5 h -2.159 v -5.865 q 0,-0.884 -0.17,-1.19 -0.153,-0.306 -0.493,-0.306 -0.357,0 -0.578,0.357 -0.221,0.357 -0.221,1.156 V 21.5 H 9.8969935 v -5.865 q 0,-0.833 -0.153,-1.156 -0.153,-0.34 -0.51,-0.34 -0.374,0 -0.595,0.357 -0.204,0.357 -0.204,1.156 V 21.5 Z M 20.097,21.704 q -1.649,0 -2.635,-1.241 -0.986,-1.258 -0.986,-3.519 0,-2.261 0.986,-3.502 0.986,-1.258 2.635,-1.258 0.952,0 1.649,0.425 0.697,0.408 1.02,1.088 V 9.43 h 2.312 V 21.5 h -2.21 L 22.8,20.055 q -0.34,0.714 -1.037,1.19 -0.68,0.459 -1.666,0.459 z m 0.663,-2.04 q 0.918,0 1.462,-0.697 0.544,-0.714 0.544,-2.023 0,-1.309 -0.544,-2.006 -0.544,-0.714 -1.462,-0.714 -0.935,0 -1.411,0.697 -0.476,0.697 -0.476,2.023 0,1.309 0.476,2.023 0.476,0.697 1.411,0.697 z"
  />
</svg>
